<svg id="Layer_1" data-name="Layer 1" xmlns="http://www.w3.org/2000/svg" viewBox="0 0 350 95"><defs><style>.cls-1{fill:#00b3c4;}.cls-2{fill:#322a56;}</style></defs><path class="cls-1" d="M98,59.51,85.24,37.43A2.83,2.83,0,0,0,82.79,36H71.57l5.57-9.66a2.83,2.83,0,0,0,0-2.84L64.38,1.42A2.85,2.85,0,0,0,61.93,0H36.37a2.83,2.83,0,0,0-2.46,1.42L21.12,23.5a2.8,2.8,0,0,0,0,2.85l5.62,9.7H15.63a2.83,2.83,0,0,0-2.45,1.41L.38,59.55a2.85,2.85,0,0,0,0,2.85L13.26,84.48a2.87,2.87,0,0,0,2.46,1.42H41.23a2.86,2.86,0,0,0,2.45-1.43l5.52-9.56,5.66,9.6a2.83,2.83,0,0,0,2.46,1.39H82.83a2.83,2.83,0,0,0,2.45-1.42L98,62.4A2.87,2.87,0,0,0,98,59.51Zm-61.23-56h22.7L48.15,23.16H25.4ZM4.68,62.72H27.42L38.75,82.35H16.1Zm46.47,8.54a2.32,2.32,0,0,0-2-1.13h0a2.34,2.34,0,0,0-2,1.15l-5.35,9.27L30.5,60.92,40.84,43a5.35,5.35,0,1,0-3.07-1.78L27.42,59.17H4.68L16,39.54H28.88a2.29,2.29,0,0,0,2.31-2.29,2.41,2.41,0,0,0-.31-1.17L25.41,26.7H48.15L58.5,44.63a5.34,5.34,0,1,0,3.07-1.77L51.22,24.93,62.54,5.3,73.87,24.93,67.43,36.1a2.31,2.31,0,0,0,.84,3.15,2.34,2.34,0,0,0,1.16.31h10.9L69,59.19H48.23a5.34,5.34,0,1,0,0,3.54H69L80.34,82.36H57.72Zm32.26,9.29L72.08,60.92,83.4,41.29,94.73,60.92Z"/><path class="cls-2" d="M132.65,54.89H122l-1.58,7.53H111.7L122,23h10.75l10.38,39.47h-8.8Zm-9.06-6.8h7.48L127.42,30.3h-.12Z"/><path class="cls-2" d="M158.58,56.23a5.56,5.56,0,0,0,4.22-1.4q1.3-1.39,1.31-4.91h8.38q0,6.93-3.29,10.08c-2.18,2.11-5.73,3.16-10.62,3.16s-8.5-1.13-10.79-3.4S144.37,53.9,144.37,49V36.37q0-7.53,3.55-10.84t10.66-3.31q7.36,0,10.62,3.13t3.29,10h-8.38q0-3.33-1.31-4.8a5.42,5.42,0,0,0-4.22-1.45,6,6,0,0,0-4.25,1.33c-1,.89-1.46,2.46-1.46,4.62V50.28c0,2.18.49,3.72,1.49,4.61A6.06,6.06,0,0,0,158.58,56.23Z"/><path class="cls-2" d="M176.61,23h13.55a33.09,33.09,0,0,1,6.13.51,10,10,0,0,1,4.41,1.95,8.63,8.63,0,0,1,2.67,3.89,20.13,20.13,0,0,1,.87,6.5A19.33,19.33,0,0,1,203.4,42a8.69,8.69,0,0,1-2.59,3.91,9.94,9.94,0,0,1-4.37,2,29,29,0,0,1-6.16.57h-5.16V62.42h-8.51Zm13.55,19a6.16,6.16,0,0,0,4.25-1.23q1.35-1.23,1.33-4.78t-1.3-4.74a5.87,5.87,0,0,0-4.22-1.27h-5.1v12Z"/><path class="cls-2" d="M206.25,54.17a8.66,8.66,0,0,1,2.25-6.32c1.5-1.54,4-2.45,7.65-2.68l8.59-.61V41.9a3.84,3.84,0,0,0-1-3A5.66,5.66,0,0,0,220.1,38c-1.78,0-3,.31-3.65.94a4,4,0,0,0-1,3h-8.14c0-3.48,1-6.13,2.92-7.93s5.21-2.7,9.77-2.7,8,.87,10,2.61,2.94,4.4,2.94,8v20.5h-6l-1.4-2.61a14.32,14.32,0,0,1-9.29,3.34c-3.4,0-5.92-.79-7.56-2.39A8.79,8.79,0,0,1,206.25,54.17Zm11.66,2.3a10.49,10.49,0,0,0,3.68-.61A9.9,9.9,0,0,0,224.68,54V49.28l-6.92.79q-3.28.38-3.28,3.34a2.83,2.83,0,0,0,.94,2.34,3.76,3.76,0,0,0,2.49.72Z"/><path class="cls-2" d="M236.19,54.17a8.66,8.66,0,0,1,2.25-6.32q2.24-2.31,7.65-2.68l8.59-.61V41.9a3.88,3.88,0,0,0-1-3,5.64,5.64,0,0,0-3.62-.88c-1.78,0-3,.31-3.64.94a4.09,4.09,0,0,0-1,3h-8.15c0-3.48,1-6.13,2.92-7.93s5.2-2.7,9.78-2.7,8,.87,10,2.61,2.94,4.4,2.94,8v20.5h-6l-1.4-2.61a14.32,14.32,0,0,1-9.29,3.34c-3.4,0-5.92-.79-7.56-2.39A8.79,8.79,0,0,1,236.19,54.17Zm11.66,2.3a10.49,10.49,0,0,0,3.68-.61A10.12,10.12,0,0,0,254.6,54V49.28l-6.92.79c-2.2.25-3.29,1.36-3.29,3.34a2.81,2.81,0,0,0,1,2.34A3.75,3.75,0,0,0,247.85,56.47Z"/><path class="cls-2" d="M286.6,50.7a5.33,5.33,0,0,0-.31-1.94,3.21,3.21,0,0,0-1.15-1.4,8.1,8.1,0,0,0-2.45-1.06c-1.06-.3-2.46-.62-4.19-.94a28.5,28.5,0,0,1-5.14-1.31,11.79,11.79,0,0,1-3.73-2.15,8.25,8.25,0,0,1-2.28-3.34,13.89,13.89,0,0,1-.75-4.91A10.74,10.74,0,0,1,270,25.3q3.38-3.07,10.6-3.07a28.26,28.26,0,0,1,6.35.61,10.78,10.78,0,0,1,4.34,2,7.88,7.88,0,0,1,2.45,3.61,17,17,0,0,1,.81,5.39H286a4.6,4.6,0,0,0-1.27-3.64,6.42,6.42,0,0,0-4.19-1.09c-1.94,0-3.32.38-4.11,1.15a4.56,4.56,0,0,0-1.18,3.4,7.34,7.34,0,0,0,.31,2.28,3.63,3.63,0,0,0,1.09,1.64,6.18,6.18,0,0,0,2.18,1.15,25,25,0,0,0,3.65.82,36.94,36.94,0,0,1,6.13,1.46,11.8,11.8,0,0,1,3.89,2.12,6.87,6.87,0,0,1,2,3.07,14.53,14.53,0,0,1,.57,4.3,15.34,15.34,0,0,1-1,5.92,9.56,9.56,0,0,1-2.89,3.88,11.61,11.61,0,0,1-4.55,2.13,26.41,26.41,0,0,1-6,.61,26.85,26.85,0,0,1-6.62-.7,11.06,11.06,0,0,1-4.49-2.21A8.91,8.91,0,0,1,267,56.28a17.59,17.59,0,0,1-.82-5.71h8.5c0,2.06.48,3.51,1.43,4.34s2.45,1.23,4.58,1.23,3.73-.41,4.62-1.23S286.6,52.77,286.6,50.7Z"/><path class="cls-2" d="M316.72,23V50.22A6.7,6.7,0,0,0,318,54.78c.85.93,2.3,1.39,4.37,1.39s3.49-.47,4.34-1.39,1.26-2.45,1.23-4.56V23h8.5V49.79a18.93,18.93,0,0,1-.91,6.38,9.59,9.59,0,0,1-2.67,4.1,10.1,10.1,0,0,1-4.4,2.19,26.3,26.3,0,0,1-6.13.61,27,27,0,0,1-6.14-.61,10.15,10.15,0,0,1-4.43-2.19,9.7,9.7,0,0,1-2.68-4.1,19.17,19.17,0,0,1-.9-6.38V23Z"/><path class="cls-2" d="M341.5,23H350V62.42h-8.5Z"/><path class="cls-2" d="M119.7,94.69H117l-5-18.44h3l3.41,14.44h.1l3.9-14.44h2.66L129,90.69h.1l3.41-14.44h3l-5,18.44h-2.7l-4-13.9h-.12Z"/><path class="cls-2" d="M149.44,94.69h-11.7V76.25h11.7v2.47H140.6v5.39H149v2.38H140.6v5.72h8.84Z"/><path class="cls-2" d="M152.39,94.69V76.25h7.55c3.26,0,5.4,1.82,5.4,4.6a4.09,4.09,0,0,1-3.27,4V85a4.45,4.45,0,0,1,4.19,4.51c0,3.25-2.36,5.21-6.3,5.21Zm2.86-10.59h3.39c2.49,0,3.85-1,3.85-2.85s-1.17-2.66-3.25-2.66h-4Zm4.14,8.25c2.58,0,4-1.06,4-3s-1.42-3-4.12-3h-4v6.07Z"/><path class="cls-2" d="M174.1,85.47c0-5.84,3.3-9.52,8.45-9.52,4.18,0,7.33,2.57,7.82,6.41h-2.84a4.91,4.91,0,0,0-5-3.91c-3.35,0-5.52,2.75-5.52,7s2.15,7,5.53,7a4.73,4.73,0,0,0,5-3.54h2.85c-.7,3.8-3.59,6-7.83,6C177.37,95,174.1,91.35,174.1,85.47Z"/><path class="cls-2" d="M209.58,85.48c0,5.87-3.33,9.52-8.64,9.52s-8.64-3.65-8.64-9.52S195.63,76,200.94,76,209.58,79.61,209.58,85.48Zm-14.35,0c0,4.29,2.21,7,5.71,7s5.7-2.71,5.7-7-2.2-7-5.7-7S195.23,81.17,195.23,85.48Z"/><path class="cls-2" d="M231,94.69h-2.62V81.12h-.09L222.7,94.55h-2.13L215,81.12h-.09V94.69h-2.6V76.25h3.31l6,14.56h.11l5.95-14.56H231Z"/><path class="cls-2" d="M241.59,76.25a5.8,5.8,0,0,1,6.08,6.06,5.86,5.86,0,0,1-6.17,6.08h-4.27v6.3h-2.86V76.25ZM237.23,86h3.6c2.48,0,3.91-1.34,3.91-3.67s-1.41-3.65-3.91-3.65h-3.6Z"/><path class="cls-2" d="M266.79,85.48c0,5.87-3.33,9.52-8.64,9.52s-8.63-3.65-8.63-9.52S252.84,76,258.15,76,266.79,79.61,266.79,85.48Zm-14.35,0c0,4.29,2.21,7,5.71,7s5.7-2.71,5.7-7-2.2-7-5.7-7S252.44,81.17,252.44,85.48Z"/><path class="cls-2" d="M269.52,94.69V76.25h2.59l9.56,13.6h.1V76.25h2.79V94.69H282l-9.56-13.58h-.12V94.69Z"/><path class="cls-2" d="M299.67,94.69H288V76.25h11.71v2.47h-8.85v5.39h8.37v2.38h-8.37v5.72h8.85Z"/><path class="cls-2" d="M302.61,94.69V76.25h2.59l9.56,13.6h.1V76.25h2.79V94.69h-2.58l-9.56-13.58h-.12V94.69Z"/><path class="cls-2" d="M325.73,94.69v-16H320V76.25h14.35v2.47h-5.74v16Z"/><path class="cls-2" d="M338.68,89.56c.2,1.82,2,3,4.41,3s4-1.21,4-2.85c0-1.44-1-2.29-3.4-2.88l-2.39-.58c-3.39-.81-5-2.4-5-5,0-3.18,2.77-5.36,6.71-5.36s6.57,2.18,6.66,5.36h-2.79c-.17-1.84-1.69-3-3.91-3s-3.74,1.13-3.74,2.76c0,1.31,1,2.07,3.34,2.66l2,.5c3.78.89,5.35,2.41,5.35,5.11,0,3.45-2.75,5.61-7.12,5.61-4.09,0-6.85-2.11-7-5.44Z"/></svg>